REM DIRINDEX 1\4,1\2\5,1\2\6,1\2\7,1\3\8,1\3\9,1\3\10,1\3\11
REM DIRNAME folder01,folder02,folder03,folder04,folder05,folder06,folder07,folder08,folder09,folder10,folder11
TITLE ""
FILE "t_k_431-441.mp3" MP3
  TRACK 01 AUDIO
    TITLE "5:cjc108_1296"
    INDEX 01 00:00:00
  TRACK 02 AUDIO
    TITLE "0:"
    INDEX 01 00:00:72
  TRACK 03 AUDIO
    TITLE "6:cjc108_1297"
    INDEX 01 00:01:09
  TRACK 04 AUDIO
    TITLE "0:"
    INDEX 01 00:03:39
  TRACK 05 AUDIO
    TITLE "7:cjc108_1298"
    INDEX 01 00:03:53
  TRACK 06 AUDIO
    TITLE "0:"
    INDEX 01 00:11:62
  TRACK 07 AUDIO
    TITLE "5:cjc108_1299"
    INDEX 01 00:12:48
  TRACK 08 AUDIO
    TITLE "0:"
    INDEX 01 00:13:47
  TRACK 09 AUDIO
    TITLE "6:cjc108_1300"
    INDEX 01 00:13:67
  TRACK 10 AUDIO
    TITLE "0:"
    INDEX 01 00:16:24
  TRACK 11 AUDIO
    TITLE "7:cjc108_1301"
    INDEX 01 00:16:38
  TRACK 12 AUDIO
    TITLE "0:"
    INDEX 01 00:22:03
  TRACK 13 AUDIO
    TITLE "5:cjc108_1302"
    INDEX 01 00:22:62
  TRACK 14 AUDIO
    TITLE "0:"
    INDEX 01 00:23:69
  TRACK 15 AUDIO
    TITLE "6:cjc108_1303"
    INDEX 01 00:24:00
  TRACK 16 AUDIO
    TITLE "0:"
    INDEX 01 00:26:42
  TRACK 17 AUDIO
    TITLE "7:cjc108_1304"
    INDEX 01 00:26:54
  TRACK 18 AUDIO
    TITLE "0:"
    INDEX 01 00:30:59
  TRACK 19 AUDIO
    TITLE "5:cjc108_1305"
    INDEX 01 00:31:45
  TRACK 20 AUDIO
    TITLE "0:"
    INDEX 01 00:32:48
  TRACK 21 AUDIO
    TITLE "6:cjc108_1306"
    INDEX 01 00:32:68
  TRACK 22 AUDIO
    TITLE "0:"
    INDEX 01 00:35:35
  TRACK 23 AUDIO
    TITLE "7:cjc108_1307"
    INDEX 01 00:35:55
  TRACK 24 AUDIO
    TITLE "0:"
    INDEX 01 00:41:32
  TRACK 25 AUDIO
    TITLE "5:cjc108_1308"
    INDEX 01 00:42:27
  TRACK 26 AUDIO
    TITLE "0:"
    INDEX 01 00:43:46
  TRACK 27 AUDIO
    TITLE "6:cjc108_1309"
    INDEX 01 00:43:56
  TRACK 28 AUDIO
    TITLE "0:"
    INDEX 01 00:45:02
  TRACK 29 AUDIO
    TITLE "7:cjc108_1310"
    INDEX 01 00:45:20
  TRACK 30 AUDIO
    TITLE "0:"
    INDEX 01 00:50:39
  TRACK 31 AUDIO
    TITLE "5:cjc108_1311"
    INDEX 01 00:51:42
  TRACK 32 AUDIO
    TITLE "0:"
    INDEX 01 00:52:45
  TRACK 33 AUDIO
    TITLE "6:cjc108_1312"
    INDEX 01 00:52:53
  TRACK 34 AUDIO
    TITLE "0:"
    INDEX 01 00:53:68
  TRACK 35 AUDIO
    TITLE "7:cjc108_1313"
    INDEX 01 00:54:15
  TRACK 36 AUDIO
    TITLE "0:"
    INDEX 01 00:59:14
  TRACK 37 AUDIO
    TITLE "5:cjc108_1314"
    INDEX 01 00:59:71
  TRACK 38 AUDIO
    TITLE "0:"
    INDEX 01 01:00:72
  TRACK 39 AUDIO
    TITLE "6:cjc108_1315"
    INDEX 01 01:01:09
  TRACK 40 AUDIO
    TITLE "0:"
    INDEX 01 01:02:42
  TRACK 41 AUDIO
    TITLE "7:cjc108_1316"
    INDEX 01 01:02:57
  TRACK 42 AUDIO
    TITLE "0:"
    INDEX 01 01:07:31
  TRACK 43 AUDIO
    TITLE "5:cjc108_1317"
    INDEX 01 01:08:11
  TRACK 44 AUDIO
    TITLE "0:"
    INDEX 01 01:09:12
  TRACK 45 AUDIO
    TITLE "6:cjc108_1318"
    INDEX 01 01:09:22
  TRACK 46 AUDIO
    TITLE "0:"
    INDEX 01 01:11:27
  TRACK 47 AUDIO
    TITLE "7:cjc108_1319"
    INDEX 01 01:11:39
  TRACK 48 AUDIO
    TITLE "0:"
    INDEX 01 01:16:52
  TRACK 49 AUDIO
    TITLE "5:cjc108_1320"
    INDEX 01 01:17:26
  TRACK 50 AUDIO
    TITLE "0:"
    INDEX 01 01:18:41
  TRACK 51 AUDIO
    TITLE "6:cjc108_1321"
    INDEX 01 01:18:49
  TRACK 52 AUDIO
    TITLE "0:"
    INDEX 01 01:21:06
  TRACK 53 AUDIO
    TITLE "7:cjc108_1322"
    INDEX 01 01:21:20
  TRACK 54 AUDIO
    TITLE "0:"
    INDEX 01 01:25:45
  TRACK 55 AUDIO
    TITLE "5:cjc108_1323"
    INDEX 01 01:26:32
  TRACK 56 AUDIO
    TITLE "0:"
    INDEX 01 01:27:44
  TRACK 57 AUDIO
    TITLE "6:cjc108_1324"
    INDEX 01 01:27:57
  TRACK 58 AUDIO
    TITLE "0:"
    INDEX 01 01:30:46
  TRACK 59 AUDIO
    TITLE "7:cjc108_1325"
    INDEX 01 01:30:62
  TRACK 60 AUDIO
    TITLE "0:"
    INDEX 01 01:36:50
  TRACK 61 AUDIO
    TITLE "5:cjc108_1326"
    INDEX 01 01:37:38
  TRACK 62 AUDIO
    TITLE "0:"
    INDEX 01 01:38:38
  TRACK 63 AUDIO
    TITLE "6:cjc108_1327"
    INDEX 01 01:38:59
  TRACK 64 AUDIO
    TITLE "0:"
    INDEX 01 01:40:01
  TRACK 65 AUDIO
    TITLE "7:cjc108_1328"
    INDEX 01 01:40:17
  TRACK 66 AUDIO
    TITLE "0:"
    INDEX 01 01:45:26
